<svg width="13" height="16" xmlns="http://www.w3.org/2000/svg" xmlns:xlink="http://www.w3.org/1999/xlink" xmlns:svgjs="http://svgjs.com/svgjs" viewBox="133 357 13 16"><svg width="13" height="8" xmlns="http://www.w3.org/2000/svg" xmlns:xlink="http://www.w3.org/1999/xlink" xmlns:svgjs="http://svgjs.com/svgjs" viewBox="0 0.321 13 7.359" fill="#515151" x="133" y="365"><svg xmlns="http://www.w3.org/2000/svg" xmlns:xlink="http://www.w3.org/1999/xlink" width="13" height="8" viewBox="0 0.442 12.783 7.236"><path paint-order="stroke fill markers" fill-rule="evenodd" d="M12.62 4.568c.414.82.006 1.806-.85 2.138-1.602.62-3.435.972-5.38.972-1.945 0-3.776-.351-5.378-.973C.157 6.373-.25 5.39.162 4.57 1.404 2.103 3.73.442 6.39.442c2.66 0 4.985 1.66 6.23 4.126z"/></svg></svg><svg width="7" height="7" xmlns="http://www.w3.org/2000/svg" xmlns:xlink="http://www.w3.org/1999/xlink" xmlns:svgjs="http://svgjs.com/svgjs" fill="#515151" x="136" y="357"><svg xmlns="http://www.w3.org/2000/svg" width="7" height="7" viewBox="0.332 0.785 6.118 6.118"><path paint-order="stroke fill markers" fill-rule="evenodd" d="M6.45 3.844a3.059 3.059 0 1 1-6.118 0 3.059 3.059 0 0 1 6.119 0z"/></svg></svg></svg>