<svg width="230" height="89" xmlns="http://www.w3.org/2000/svg" xmlns:xlink="http://www.w3.org/1999/xlink" xmlns:svgjs="http://svgjs.com/svgjs" viewBox="73 328 230 89"><svg width="53" height="48" xmlns="http://www.w3.org/2000/svg" xmlns:xlink="http://www.w3.org/1999/xlink" xmlns:svgjs="http://svgjs.com/svgjs" viewBox="0 0.182 53 47.635" fill="#f9aa05" x="107" y="329"><svg xmlns="http://www.w3.org/2000/svg" xmlns:xlink="http://www.w3.org/1999/xlink" width="53" height="48" viewBox="0.54 0.289 52.019 46.754"><path paint-order="stroke fill markers" fill-rule="evenodd" d="M42.423 47.043l-3.735-10.375H16.546l-5.335 10.375H.541L26.015.289h8.47L52.56 47.043H42.423zm-21.875-18.19h15.339l-6.27-17.598-9.07 17.599z"/></svg></svg><svg width="41" height="48" xmlns="http://www.w3.org/2000/svg" xmlns:xlink="http://www.w3.org/1999/xlink" xmlns:svgjs="http://svgjs.com/svgjs" viewBox="0 0.478 41 47.043" fill="#f9aa05" x="73" y="329"><svg xmlns="http://www.w3.org/2000/svg" xmlns:xlink="http://www.w3.org/1999/xlink" width="41" height="48" viewBox="0.061 0.289 40.748 46.754"><path paint-order="stroke fill markers" fill-rule="evenodd" d="M33.474 1.93c2.4 1.095 4.223 2.627 5.468 4.597 1.244 1.97 1.868 4.225 1.868 6.764 0 4.685-1.501 8.329-4.502 10.933-3.001 2.605-7.28 3.907-12.838 3.907H11.999l-1.534 18.912H.061L3.796.289H24.87c3.335 0 6.203.548 8.604 1.642zm-4.636 16.712c1.445-1.116 2.168-2.702 2.168-4.76 0-3.81-2.49-5.713-7.47-5.713H13.6l-1 12.148h9.87c2.8 0 4.923-.558 6.368-1.675z"/></svg></svg><svg width="230" height="89" xmlns="http://www.w3.org/2000/svg" xmlns:xlink="http://www.w3.org/1999/xlink" xmlns:svgjs="http://svgjs.com/svgjs" viewBox="73 328 230 89" x="73" y="328"><svg width="41" height="48" xmlns="http://www.w3.org/2000/svg" xmlns:xlink="http://www.w3.org/1999/xlink" xmlns:svgjs="http://svgjs.com/svgjs" viewBox="0 0.478 41 47.043" fill="#f9aa05" x="73" y="329"><svg xmlns="http://www.w3.org/2000/svg" xmlns:xlink="http://www.w3.org/1999/xlink" width="41" height="48" viewBox="0.061 0.289 40.748 46.754"><path paint-order="stroke fill markers" fill-rule="evenodd" d="M33.474 1.93c2.4 1.095 4.223 2.627 5.468 4.597 1.244 1.97 1.868 4.225 1.868 6.764 0 4.685-1.501 8.329-4.502 10.933-3.001 2.605-7.28 3.907-12.838 3.907H11.999l-1.534 18.912H.061L3.796.289H24.87c3.335 0 6.203.548 8.604 1.642zm-4.636 16.712c1.445-1.116 2.168-2.702 2.168-4.76 0-3.81-2.49-5.713-7.47-5.713H13.6l-1 12.148h9.87c2.8 0 4.923-.558 6.368-1.675z"/></svg></svg><svg width="53" height="48" xmlns="http://www.w3.org/2000/svg" xmlns:xlink="http://www.w3.org/1999/xlink" xmlns:svgjs="http://svgjs.com/svgjs" viewBox="0 0.182 53 47.635" fill="#f9aa05" x="107" y="329"><svg xmlns="http://www.w3.org/2000/svg" xmlns:xlink="http://www.w3.org/1999/xlink" width="53" height="48" viewBox="0.54 0.289 52.019 46.754"><path paint-order="stroke fill markers" fill-rule="evenodd" d="M42.423 47.043l-3.735-10.375H16.546l-5.335 10.375H.541L26.015.289h8.47L52.56 47.043H42.423zm-21.875-18.19h15.339l-6.27-17.598-9.07 17.599z"/></svg></svg><svg width="41" height="49" xmlns="http://www.w3.org/2000/svg" xmlns:xlink="http://www.w3.org/1999/xlink" xmlns:svgjs="http://svgjs.com/svgjs" viewBox="0.083 0 40.835 49" fill="#f9aa05" x="161" y="328"><svg xmlns="http://www.w3.org/2000/svg" xmlns:xlink="http://www.w3.org/1999/xlink" width="41" height="49" viewBox="0.293 0.698 39.948 47.936"><path paint-order="stroke fill markers" fill-rule="evenodd" d="M8.963 47.255c-3.29-.92-6.18-2.254-8.67-4.006l3.935-7.354c2.4 1.62 4.879 2.813 7.436 3.578 2.556.767 5.28 1.15 8.17 1.15 2.978 0 5.235-.437 6.769-1.314 1.534-.875 2.3-2.144 2.3-3.808 0-1.62-.8-2.867-2.4-3.743-1.6-.875-4.068-1.795-7.403-2.758-3.334-.963-6.035-1.904-8.103-2.824-2.067-.92-3.858-2.265-5.369-4.038-1.511-1.773-2.267-4.104-2.267-6.994 0-2.889.81-5.427 2.434-7.617 1.623-2.188 3.912-3.874 6.87-5.056C15.62 1.289 19.076.698 23.034.698c3.423 0 6.669.482 9.737 1.445 3.068.963 5.557 2.276 7.469 3.94l-3.868 7.354a22.99 22.99 0 0 0-6.535-3.513c-2.358-.81-4.714-1.215-7.07-1.215-2.846 0-5.068.482-6.669 1.445-1.6.963-2.4 2.32-2.4 4.071 0 1.182.433 2.179 1.3 2.988.867.81 1.967 1.467 3.3 1.97 1.335.504 3.179 1.106 5.536 1.806 3.245.92 5.902 1.828 7.97 2.725a14.385 14.385 0 0 1 5.302 3.94c1.467 1.73 2.2 3.973 2.2 6.73 0 4.51-1.745 8.012-5.235 10.507-3.49 2.495-8.37 3.743-14.639 3.743-3.69 0-7.18-.46-10.47-1.379z"/></svg></svg><svg width="42" height="49" xmlns="http://www.w3.org/2000/svg" xmlns:xlink="http://www.w3.org/1999/xlink" xmlns:svgjs="http://svgjs.com/svgjs" viewBox="0 0.115 42 48.77" fill="#f9aa05" x="207" y="328"><svg xmlns="http://www.w3.org/2000/svg" xmlns:xlink="http://www.w3.org/1999/xlink" width="42" height="49" viewBox="0.243 0.698 41.282 47.936"><path paint-order="stroke fill markers" fill-rule="evenodd" d="M10.68 45.91c-3.357-1.817-5.935-4.411-7.736-7.782-1.8-3.37-2.701-7.332-2.701-11.886 0-5.122 1.022-9.609 3.068-13.461 2.044-3.852 4.924-6.83 8.636-8.93C15.66 1.748 20.006.697 24.985.697c3.245 0 6.28.46 9.104 1.379 2.823.92 5.302 2.255 7.436 4.006l-3.935 7.354c-2-1.576-3.968-2.725-5.902-3.447-1.934-.723-4.035-1.084-6.302-1.084-4.625 0-8.203 1.544-10.738 4.63-2.534 3.086-3.8 7.344-3.8 12.772 0 4.553 1.043 8.044 3.134 10.473 2.09 2.43 5.112 3.645 9.07 3.645 3.911 0 8.158-1.51 12.737-4.53l2.735 7.354c-1.734 1.664-4.025 2.977-6.87 3.94-2.845.962-5.868 1.444-9.07 1.444-4.58 0-8.547-.908-11.904-2.725z"/></svg></svg><svg width="230" height="10" xmlns="http://www.w3.org/2000/svg" xmlns:xlink="http://www.w3.org/1999/xlink" xmlns:svgjs="http://svgjs.com/svgjs" viewBox="0 0.202 230 9.596" fill="#707070" stroke-miterlimit="100" stroke="#000" x="73" y="385"><svg xmlns="http://www.w3.org/2000/svg" xmlns:xlink="http://www.w3.org/1999/xlink" width="230" height="10" viewBox="0.205 0.375 228.84 9.547"><path paint-order="stroke fill markers" fill-rule="evenodd" d="M194.392 9.393a3.521 3.521 0 0 1-1.431-1.518c-.333-.657-.498-1.436-.498-2.334 0-1.038.179-1.947.537-2.727.357-.78.863-1.382 1.517-1.805.654-.423 1.416-.634 2.288-.634.855 0 1.594.176 2.217.53.624.353 1.1.859 1.433 1.516.331.66.497 1.441.497 2.348 0 1.038-.18 1.945-.537 2.72-.357.776-.863 1.376-1.517 1.799-.654.423-1.417.634-2.289.634-.854 0-1.594-.176-2.217-.53zm.68-7.579c-.483.34-.856.828-1.118 1.464-.26.637-.392 1.395-.392 2.276 0 1.107.263 1.957.79 2.55.528.593 1.28.89 2.257.89.663 0 1.236-.17 1.72-.51.484-.34.857-.829 1.119-1.465.26-.637.392-1.39.392-2.263 0-1.107-.262-1.96-.785-2.557s-1.273-.895-2.25-.895c-.671 0-1.249.17-1.732.51zm-92.244 7.579a3.529 3.529 0 0 1-1.433-1.518c-.33-.657-.496-1.436-.496-2.334 0-1.038.179-1.947.536-2.727.357-.78.863-1.382 1.517-1.805.655-.423 1.417-.634 2.29-.634.853 0 1.592.176 2.216.53.624.353 1.1.859 1.432 1.516.331.66.498 1.441.498 2.348 0 1.038-.18 1.945-.537 2.72-.358.776-.863 1.376-1.517 1.799-.655.423-1.417.634-2.29.634-.854 0-1.593-.176-2.216-.53zm.68-7.579c-.484.34-.857.828-1.118 1.464-.262.637-.392 1.395-.392 2.276 0 1.107.263 1.957.79 2.55.528.593 1.28.89 2.257.89.662 0 1.236-.17 1.72-.51.484-.34.857-.829 1.118-1.465.262-.637.392-1.39.392-2.263 0-1.107-.261-1.96-.785-2.557-.523-.597-1.272-.895-2.249-.895-.671 0-1.249.17-1.733.51zM223.14 9.387c-.597-.35-1.06-.853-1.387-1.512-.326-.657-.49-1.436-.49-2.334 0-1.046.18-1.958.543-2.733.361-.776.88-1.374 1.556-1.792.676-.419 1.472-.628 2.387-.628.68 0 1.302.098 1.864.294a3.74 3.74 0 0 1 1.432.884l-.483.81a3.975 3.975 0 0 0-1.275-.81c-.441-.166-.949-.25-1.524-.25-1.073 0-1.905.376-2.499 1.125-.593.75-.889 1.788-.889 3.113 0 1.1.261 1.944.785 2.537.523.594 1.268.89 2.237.89.967 0 1.878-.358 2.733-1.072l.34.823c-.829.785-1.9 1.177-3.218 1.177-.81 0-1.515-.174-2.112-.522zm-37.982 0a3.509 3.509 0 0 1-1.386-1.512c-.326-.657-.49-1.436-.49-2.334 0-1.046.18-1.958.543-2.733.361-.776.88-1.374 1.556-1.792.676-.419 1.471-.628 2.386-.628.68 0 1.302.098 1.864.294.563.197 1.04.491 1.432.884l-.483.81a3.976 3.976 0 0 0-1.275-.81c-.44-.166-.949-.25-1.524-.25-1.073 0-1.905.376-2.498 1.125-.594.75-.89 1.788-.89 3.113 0 1.1.262 1.944.785 2.537.523.594 1.27.89 2.237.89.967 0 1.879-.358 2.733-1.072l.34.823c-.829.785-1.9 1.177-3.217 1.177-.811 0-1.515-.174-2.113-.522zm-14.503-.609c-.737-.754-1.105-1.803-1.105-3.145 0-1.064.189-1.99.569-2.78.378-.789.917-1.397 1.614-1.824.698-.427 1.517-.642 2.459-.642 1.326 0 2.407.394 3.244 1.178l-.484.824c-.444-.383-.88-.66-1.307-.83a3.863 3.863 0 0 0-1.44-.255c-1.116.009-1.986.392-2.609 1.15-.623.759-.935 1.805-.935 3.14 0 1.098.268 1.941.805 2.53.535.588 1.335.883 2.4.883.706 0 1.425-.123 2.157-.367l.21-2.837h-2.316l.079-.85h3.296l-.34 4.302c-.392.192-.878.35-1.459.47a8.185 8.185 0 0 1-1.693.184c-1.36 0-2.409-.377-3.145-1.13zm-54.356.843a4.82 4.82 0 0 1-1.589-.889l.484-.824c.471.384.952.663 1.446.837.492.174 1.04.262 1.64.262.759 0 1.341-.142 1.746-.425.406-.284.609-.682.609-1.197 0-.314-.1-.573-.3-.779-.202-.204-.45-.365-.747-.483a13.7 13.7 0 0 0-1.216-.4 14.355 14.355 0 0 1-1.59-.548 2.709 2.709 0 0 1-1.033-.779c-.283-.344-.424-.8-.424-1.366 0-.532.141-.996.424-1.393.284-.397.685-.704 1.205-.922.518-.218 1.126-.328 1.823-.328a5.34 5.34 0 0 1 1.832.308c.567.205 1.05.495 1.451.87l-.484.824c-.854-.733-1.79-1.099-2.811-1.099-.76 0-1.341.149-1.746.445-.405.297-.609.71-.609 1.243 0 .348.107.636.32.863.214.227.48.403.799.529.318.127.747.268 1.288.425.628.183 1.138.358 1.53.524.392.165.724.409.994.732.27.322.405.74.405 1.256 0 .802-.311 1.436-.935 1.902-.623.467-1.471.7-2.543.7-.733 0-1.389-.096-1.969-.288zm-40.243 0a4.82 4.82 0 0 1-1.59-.889l.485-.824c.47.384.952.663 1.444.837.493.174 1.04.262 1.642.262.758 0 1.34-.142 1.746-.425.406-.284.608-.682.608-1.197 0-.314-.1-.573-.3-.779-.201-.204-.45-.365-.746-.483a13.936 13.936 0 0 0-1.216-.4 14.365 14.365 0 0 1-1.59-.548 2.707 2.707 0 0 1-1.033-.779c-.283-.344-.425-.8-.425-1.366 0-.532.142-.996.425-1.393.283-.397.685-.704 1.203-.922.52-.218 1.127-.328 1.825-.328.654 0 1.264.103 1.831.308.567.205 1.05.495 1.452.87l-.484.824c-.854-.733-1.791-1.099-2.812-1.099-.759 0-1.34.149-1.746.445-.406.297-.608.71-.608 1.243 0 .348.107.636.32.863.213.227.48.403.798.529.318.127.747.268 1.288.425.628.183 1.138.358 1.53.524.393.165.724.409.995.732.27.322.405.74.405 1.256 0 .802-.312 1.436-.935 1.902-.623.467-1.472.7-2.544.7-.732 0-1.389-.096-1.968-.288zm138.17.184l.732-9.312h1.087l-.667 8.396h4.669l-.066.916h-5.754zm-7.507 0l.732-9.312h1.086l-.667 8.396h4.67l-.066.916h-5.755zm-40.688 0l-5.009-7.468-.602 7.468h-1.02l.732-9.312h.837l5.01 7.468.588-7.468h1.02l-.732 9.312h-.824zm-10.384 0l.719-9.312h1.099l-.733 9.312h-1.085zm-21.567 0l.719-9.312h1.099l-.733 9.312h-1.085zm-3.754 0l.34-4.278h-5.572l-.34 4.278h-1.072l.733-9.312h1.072l-.327 4.133h5.572l.327-4.133h1.072l-.732 9.312h-1.073zm-44.834 0l.667-8.397h-3.257l.079-.915h7.572l-.065.915h-3.243l-.667 8.397h-1.086zm-13.354 0l-.837-2.394h-4.865l-1.203 2.394h-1.138L68.92.493h.929l3.374 9.312h-1.086zm-5.244-3.283h4.093l-1.686-4.787-2.407 4.787zm-8.528 3.283l-.837-2.394h-4.865l-1.203 2.394h-1.138L55.15.493h.929l3.374 9.312h-1.086zm-5.244-3.283h4.093l-1.687-4.787-2.406 4.787zM33.791 9.805l.733-9.312h5.898l-.065.889H35.53l-.261 3.244h4.564l-.079.902h-4.55l-.275 3.387h4.825l-.064.89h-5.9zm-3.675 0l.55-6.88-3.558 6.88h-.758l-2.499-6.88-.536 6.88h-.993L23.04.493h.902l2.878 8.043L30.94.493h.89l-.72 9.312h-.994zm-11.562 0l.72-9.312h1.098l-.732 9.312h-1.086zm128.186 0l.733-9.312h3.583c.95 0 1.685.222 2.204.667.52.444.778 1.033.778 1.765 0 .899-.292 1.587-.876 2.067-.584.48-1.39.719-2.42.719h-2.602l-.314 4.093h-1.086zm1.478-4.983h2.472c.741 0 1.308-.155 1.7-.465.393-.31.589-.77.589-1.38 0-.496-.166-.887-.498-1.17-.33-.283-.831-.425-1.504-.425h-2.497l-.262 3.44zm-10.385 4.982l.732-9.311h3.584c.95 0 1.685.222 2.203.667.52.444.779 1.033.779 1.765 0 .899-.292 1.587-.876 2.067-.585.48-1.391.719-2.42.719h-2.603l-.313 4.093h-1.086zm1.478-4.982h2.472c.74 0 1.308-.155 1.7-.465.392-.31.589-.77.589-1.38 0-.496-.166-.887-.497-1.17-.331-.283-.833-.425-1.504-.425h-2.498l-.262 3.44zM97.695 9.804l-.942-3.099c-.114-.375-.301-.63-.562-.765-.262-.135-.629-.203-1.1-.203h-2.183l-.327 4.067h-1.06l.72-9.311h3.792c.943 0 1.67.211 2.185.634.514.423.772 1.018.772 1.785 0 .697-.18 1.273-.537 1.726-.357.454-.889.759-1.595.916.262.07.477.21.647.419.17.209.312.506.425.889l.89 2.942h-1.125zm-4.722-4.956h2.707c1.509 0 2.263-.624 2.263-1.87 0-1.064-.659-1.596-1.975-1.596h-2.72l-.275 3.466zM48.061 9.804l-.942-3.099c-.114-.375-.301-.63-.562-.765-.262-.135-.629-.203-1.1-.203h-2.184l-.326 4.067h-1.06l.72-9.311h3.792c.942 0 1.67.211 2.184.634.515.423.773 1.018.773 1.785 0 .697-.18 1.273-.537 1.726-.357.454-.889.759-1.595.916.261.07.477.21.647.419.17.209.312.506.425.889l.89 2.942H48.06zm-4.722-4.956h2.707c1.509 0 2.263-.624 2.263-1.87 0-1.064-.658-1.596-1.975-1.596h-2.72l-.275 3.466zM15.298 9.804l-.942-3.099c-.113-.375-.301-.63-.562-.765-.262-.135-.628-.203-1.099-.203h-2.184l-.327 4.067h-1.06l.72-9.311h3.792c.943 0 1.67.211 2.185.634.515.423.772 1.018.772 1.785 0 .697-.18 1.273-.537 1.726-.357.454-.889.759-1.595.916.262.07.478.21.647.419.17.209.312.506.426.889l.889 2.942h-1.125zm-4.722-4.956h2.708c1.508 0 2.262-.624 2.262-1.87 0-1.064-.658-1.596-1.974-1.596H10.85l-.275 3.466zM.205 9.804L.937.493H4.52c.95 0 1.686.222 2.204.667.52.444.779 1.033.779 1.765 0 .899-.293 1.587-.877 2.067-.584.48-1.39.719-2.419.719H1.604L1.29 9.804H.205zm1.478-4.982h2.472c.74 0 1.308-.155 1.7-.465.392-.31.589-.77.589-1.38 0-.496-.166-.887-.498-1.17-.331-.283-.833-.425-1.504-.425H1.945l-.262 3.44z"/></svg></svg><svg width="229" height="17" xmlns="http://www.w3.org/2000/svg" xmlns:xlink="http://www.w3.org/1999/xlink" xmlns:svgjs="http://svgjs.com/svgjs" viewBox="0 0.722 229 15.556" fill="#5573a4" stroke-miterlimit="100" stroke="#000" x="73" y="400"><svg xmlns="http://www.w3.org/2000/svg" xmlns:xlink="http://www.w3.org/1999/xlink" width="229" height="17" viewBox="0 0.836 228.263 15.506"><path paint-order="stroke fill markers" fill-rule="evenodd" d="M23.294 16.342l-.788-4.87c-.2-1.245-.047-2.21.458-2.898.556-.758 1.52-1.137 2.891-1.137h.284c.566-1.716 1.93-2.574 4.091-2.574 1.305 0 2.281.349 2.93 1.046.585.623.879 1.49.879 2.605v3.824h-3.824c-2.453 0-3.858-.874-4.214-2.62h-.192c-.3 0-.481.1-.543.301-.066.21-.045.64.062 1.287l.81 5.036h-2.844zm5.873-8.777c-.199.261-.298.588-.298.978 0 1.01.537 1.514 1.614 1.514h.672V8.793c0-1.1-.367-1.65-1.101-1.65-.372 0-.668.141-.887.422zM5.662 16.342l-.789-4.87c-.198-1.245-.045-2.21.46-2.898.555-.758 1.519-1.137 2.89-1.137h.284c.565-1.716 1.93-2.574 4.091-2.574 1.305 0 2.282.349 2.93 1.046.586.623.879 1.49.879 2.605v3.824h-3.824c-2.453 0-3.858-.874-4.214-2.62h-.192c-.3 0-.481.1-.542.301-.067.21-.046.64.06 1.287l.812 5.036H5.662zm5.873-8.777c-.199.261-.299.588-.299.978 0 1.01.539 1.514 1.614 1.514h.673V8.793c0-1.1-.367-1.65-1.101-1.65-.372 0-.668.141-.887.422zm196.958 8.582l.153-2.282c.24.03.517.046.833.046.383 0 .658-.098.827-.293.188-.216.282-.598.282-1.145V5.089h2.983v4.968h1.736c.44 0 .732-.103.88-.309.153-.216.23-.657.23-1.324v-2.41h2.974v2.898c0 .522.07.874.207 1.054.107.14.29.212.55.212.29 0 .492-.104.605-.309.096-.186.146-.5.146-.941v-3.53h2.821v3.748c0 .346.069.579.206.7.169.14.505.211 1.01.211h.284c.04-.507.06-.986.06-1.438 0-1.255-.114-2.57-.344-3.944l2.899-.354c.285 1.34.428 2.722.428 4.148 0 1.41-.063 2.7-.191 3.869h-3.763c-1.229 0-2.042-.274-2.44-.821-.387.627-1.165.941-2.332.941-1.184 0-1.92-.339-2.21-1.017-.301.598-.984.897-2.05.897h-1.706v.06c0 2.529-1.404 3.794-4.214 3.794-.31 0-.6-.016-.864-.045zm-29.463 0l.153-2.282c.24.03.517.046.833.046.383 0 .658-.098.826-.293.188-.216.283-.598.283-1.145V5.089h2.982v4.968h3.044V5.09h2.976v7.249h-4.772-.238-1.01v.06c0 2.529-1.404 3.794-4.213 3.794-.312 0-.6-.016-.864-.045zm-29.217 0l.152-2.282c.24.03.519.046.834.046.383 0 .657-.098.827-.293.188-.216.282-.598.282-1.145V5.089h2.983v4.968h3.549V5.09h2.975v4.968h.78c1.126 0 1.69-.495 1.69-1.483 0-1.029.354-1.886 1.062-2.574.791-.758 1.867-1.137 3.228-1.137 1.305 0 2.284.349 2.937 1.046.581.623.872 1.49.872 2.605v1.543h3.196V5.09h2.976v7.249h-9.728c-1.494 0-2.611-.28-3.35-.836-.36.523-1.166.798-2.41.83v.006h-.236-.238-7.303v.06c0 2.529-1.405 3.794-4.214 3.794-.311 0-.6-.016-.864-.045zm17.307-8.582c-.204.261-.306.588-.306.978 0 1.01.538 1.514 1.614 1.514h.673V8.793c0-1.1-.365-1.65-1.094-1.65-.378 0-.673.141-.887.422zm-59.162 8.582l.153-2.281c.239.03.517.045.833.045.382 0 .658-.098.826-.293.188-.216.283-.598.283-1.145V5.089h2.982v4.968h2.923V5.09h2.974v4.968h4.918c.438 0 .732-.103.88-.309.152-.216.229-.657.229-1.324v-2.41h2.975v2.898c0 .522.068.874.206 1.054.107.14.29.212.55.212.292 0 .493-.104.606-.309.096-.186.145-.5.145-.941v-3.53h2.822v3.748c0 .346.068.58.206.7.168.14.505.211 1.01.211h.283c.04-.507.06-.986.06-1.438 0-1.255-.114-2.57-.343-3.944l2.899-.354c.285 1.34.427 2.722.427 4.148 0 1.41-.064 2.7-.19 3.869h-3.763c-1.23 0-2.042-.274-2.44-.821-.387.627-1.165.941-2.333.941-1.183 0-1.919-.339-2.21-1.017-.301.598-.984.897-2.05.897h-.581-.313-2.738-.223-6.929v.06c0 2.529-1.404 3.794-4.213 3.794-.31 0-.6-.016-.864-.045zm-8.553-.106l.153-2.333c.719.135 1.506.203 2.363.203 1.525 0 2.287-.52 2.287-1.559v-.014h-.719c-2.86 0-4.29-1.177-4.29-3.531 0-1.119.342-2.032 1.025-2.74.78-.802 1.912-1.204 3.396-1.204 1.366 0 2.523.178 3.472.535v6.586c0 1.33-.441 2.353-1.324 3.07-.923.759-2.282 1.138-4.076 1.138-.754 0-1.517-.05-2.287-.15zm3.037-8.476c-.2.261-.298.588-.298.978 0 1.01.537 1.514 1.613 1.514h.451V7.325c-.23-.12-.52-.181-.872-.181-.377 0-.675.14-.894.421zm83.884 8.07c-.275-.271-.413-.6-.413-.987 0-.386.138-.712.413-.978.275-.271.61-.406 1.002-.406s.723.135.994.406c.276.266.413.592.413.978 0 .387-.137.716-.413.986-.27.271-.602.407-.994.407-.393 0-.727-.136-1.002-.407zm-10.411-.016c-.26-.265-.39-.59-.39-.971 0-.37.13-.69.39-.956.26-.265.579-.398.956-.398.372 0 .688.133.948.398.255.267.383.585.383.956 0 .382-.128.706-.383.971-.255.267-.57.399-.948.399-.377 0-.696-.132-.956-.399zm-3.013 0a1.351 1.351 0 0 1-.383-.971c0-.37.128-.69.383-.956.26-.265.576-.398.948-.398.383 0 .704.133.964.398.255.267.383.585.383.956 0 .382-.128.706-.383.971-.26.267-.581.399-.964.399-.372 0-.688-.132-.948-.399zm-13.728 0c-.26-.265-.39-.59-.39-.971 0-.37.13-.69.39-.956.26-.265.578-.398.956-.398.371 0 .688.133.948.398.255.267.383.585.383.956 0 .382-.128.706-.383.971a1.26 1.26 0 0 1-.948.399 1.28 1.28 0 0 1-.956-.399zm-3.013 0a1.348 1.348 0 0 1-.383-.971c0-.37.127-.69.383-.956.26-.265.576-.398.947-.398.383 0 .704.133.964.398.255.267.383.585.383.956 0 .382-.128.706-.383.971-.26.267-.581.399-.964.399-.371 0-.687-.132-.947-.399zM50.25 11.382c0-.803.12-1.646.36-2.53l3.074-.542c-.306.974-.459 1.905-.459 2.793 0 1.666.563 2.5 1.69 2.5.602 0 1.028-.187 1.277-.558.266-.396.398-1.083.398-2.063V5.09h2.983v4.968h6.485c.02-.186.03-.381.03-.588 0-1.48-.84-2.22-2.523-2.22-.652 0-1.284.052-1.896.159V5.126c.688-.105 1.42-.157 2.195-.157 1.79 0 3.102.371 3.938 1.113.821.723 1.232 1.837 1.232 3.342l-.016.633h1.59c.44 0 .732-.103.88-.309.154-.216.23-.657.23-1.325V6.014h2.975v2.898c0 .522.069.873.207 1.054.107.14.29.212.55.212.291 0 .492-.104.604-.309.097-.186.145-.5.145-.941v-3.53h2.823v3.748c0 .346.068.579.206.7.169.14.505.211 1.01.211h.282c.042-.507.061-.986.061-1.438 0-1.255-.114-2.57-.343-3.944l2.899-.354c.285 1.34.428 2.722.428 4.148 0 .34-.014.87-.039 1.588h2.601V1.468h2.975v8.59h2.691v-8.59h2.976v10.87h-4.336-.238-5.43-.236-4.919c-1.228 0-2.042-.274-2.439-.821-.388.627-1.165.94-2.332.94-1.184 0-1.92-.338-2.21-1.016-.302.598-.986.897-2.051.897h-.65-.245-8.863-.23-1.162c-.429 2.363-2 3.545-4.712 3.545-2.977 0-4.466-1.5-4.466-4.501zm-14.473.67a1.608 1.608 0 0 1-.512-1.197c0-.462.17-.858.512-1.19a1.647 1.647 0 0 1 1.208-.503c.47 0 .874.167 1.216.504.341.33.512.727.512 1.189 0 .467-.17.865-.512 1.197a1.673 1.673 0 0 1-1.216.504c-.47 0-.872-.168-1.208-.504zm-17.632 0a1.606 1.606 0 0 1-.513-1.197c0-.462.17-.858.513-1.19a1.647 1.647 0 0 1 1.208-.503c.47 0 .874.167 1.216.504.342.33.513.727.513 1.189 0 .467-.171.865-.513 1.197a1.674 1.674 0 0 1-1.216.504c-.47 0-.872-.168-1.208-.504zm-17.633 0A1.608 1.608 0 0 1 0 10.855c0-.462.17-.858.512-1.19.337-.336.74-.503 1.209-.503.469 0 .874.167 1.216.504.342.33.512.727.512 1.189 0 .467-.17.865-.512 1.197a1.673 1.673 0 0 1-1.216.504c-.47 0-.872-.168-1.209-.504zm202.71.286h-.237-4.62c-2.86 0-4.29-1.177-4.29-3.531 0-1.119.341-2.032 1.024-2.74.78-.802 1.913-1.204 3.396-1.204 1.366 0 2.524.178 3.472.535v4.66h5.109a3.052 3.052 0 0 0-.986-1.974c-.608-.567-1.423-.923-2.448-1.068V4.893l6.577-4.057v2.882l-3.197 1.837c1.974.979 2.96 2.778 2.96 5.398v1.385h-6.76zm-5.905-4.773c-.198.261-.298.588-.298.978 0 1.01.538 1.514 1.614 1.514h.45V7.325c-.228-.12-.519-.181-.87-.181-.379 0-.677.14-.896.421zm-50.734 4.773V1.468h2.975v10.87h-2.975zm-7.795 0V1.468h2.975v10.87h-2.975zm-98.78 0v-2.28H44.1a3.028 3.028 0 0 0-.964-1.95c-.591-.557-1.38-.916-2.363-1.077l.688-2.416c3.696.732 5.545 2.846 5.545 6.338v1.385h-6.998zm13.569-5.104a1.33 1.33 0 0 1-.413-.986c0-.387.137-.715.413-.986.27-.266.601-.399.994-.399s.727.133 1.002.399c.275.27.413.6.413.986s-.138.715-.413.986c-.275.266-.61.4-1.002.4-.393 0-.724-.134-.994-.4zm-12.062-3.32a1.305 1.305 0 0 1-.414-.978c0-.387.138-.715.414-.986.275-.271.609-.407 1.002-.407.387 0 .718.136.993.407.276.27.413.6.413.986s-.137.713-.413.979c-.275.27-.606.406-.993.406-.393 0-.727-.135-1.002-.406zm181.241-.044a1.33 1.33 0 0 1-.39-.964c0-.376.13-.695.39-.956.26-.271.582-.407.964-.407.372 0 .689.136.949.407.254.26.381.58.381.956s-.127.697-.381.964c-.26.27-.577.406-.949.406-.382 0-.704-.135-.964-.406zm-3.013 0a1.343 1.343 0 0 1-.382-.963c0-.377.127-.696.382-.957.26-.271.576-.406.949-.406.382 0 .703.135.963.406.255.26.383.58.383.957 0 .375-.128.697-.383.963-.26.27-.58.406-.963.406-.373 0-.689-.135-.949-.406zm-20.973 0a1.327 1.327 0 0 1-.39-.963c0-.377.13-.696.39-.957.26-.271.579-.406.957-.406.372 0 .688.135.948.406.254.26.382.58.382.957 0 .375-.128.697-.382.963-.255.27-.57.406-.948.406s-.697-.135-.957-.406zm-3.013 0a1.343 1.343 0 0 1-.382-.963c0-.377.127-.696.382-.957.26-.271.576-.406.949-.406.382 0 .703.135.963.406.255.26.383.58.383.957 0 .375-.128.697-.383.963-.26.27-.58.406-.963.406-.373 0-.689-.135-.949-.406zm-78.094 0a1.328 1.328 0 0 1-.39-.963c0-.377.13-.696.39-.957.26-.271.579-.406.956-.406s.694.135.949.406c.254.26.382.58.382.957 0 .375-.128.697-.382.963a1.25 1.25 0 0 1-.949.406c-.377 0-.697-.135-.956-.406zm-3.013 0a1.34 1.34 0 0 1-.383-.963c0-.377.127-.696.383-.957.26-.271.576-.406.948-.406.382 0 .704.135.964.406.254.26.382.58.382.957 0 .375-.128.697-.382.963-.26.27-.582.406-.964.406-.372 0-.688-.135-.948-.406zm-36.592 0a1.333 1.333 0 0 1-.39-.964c0-.376.13-.695.39-.956.26-.271.581-.407.964-.407.372 0 .688.136.948.407.255.26.383.58.383.956s-.128.697-.383.964c-.26.27-.576.406-.948.406-.383 0-.704-.135-.964-.406zm-3.013 0a1.342 1.342 0 0 1-.382-.963c0-.377.127-.696.382-.957.26-.271.576-.406.948-.406.383 0 .704.135.963.406.256.26.384.58.384.957 0 .375-.128.697-.384.963-.259.27-.58.406-.963.406-.372 0-.688-.135-.948-.406z"/></svg></svg><svg width="3" height="3" xmlns="http://www.w3.org/2000/svg" xmlns:xlink="http://www.w3.org/1999/xlink" xmlns:svgjs="http://svgjs.com/svgjs" viewBox="0.027 0 2.945 3" fill="#5573a4" x="149" y="399"><svg xmlns="http://www.w3.org/2000/svg" xmlns:xlink="http://www.w3.org/1999/xlink" width="3" height="3" viewBox="0.292 0.112 2.416 2.461"><path paint-order="stroke fill markers" fill-rule="evenodd" d="M1.5 2.574c.341 0 .63-.121.864-.362.23-.236.344-.524.344-.866 0-.345-.114-.637-.344-.873A1.158 1.158 0 0 0 1.5.113c-.342 0-.63.12-.865.36-.229.236-.343.528-.343.873 0 .342.114.63.343.866.235.241.523.362.865.362z"/></svg></svg><svg width="4" height="3" xmlns="http://www.w3.org/2000/svg" xmlns:xlink="http://www.w3.org/1999/xlink" xmlns:svgjs="http://svgjs.com/svgjs" viewBox="0.527 0 2.945 3" fill="#5573a4" x="293" y="399"><svg xmlns="http://www.w3.org/2000/svg" xmlns:xlink="http://www.w3.org/1999/xlink" width="4" height="3" viewBox="0.99 0.112 2.417 2.461"><path paint-order="stroke fill markers" fill-rule="evenodd" d="M2.198 2.574c.342 0 .63-.121.864-.362.23-.236.344-.524.344-.866 0-.345-.114-.637-.344-.873a1.16 1.16 0 0 0-.864-.36c-.342 0-.63.12-.864.36-.23.236-.344.528-.344.873 0 .342.114.63.344.866.234.241.522.362.864.362z"/></svg></svg><svg width="31" height="31" xmlns="http://www.w3.org/2000/svg" xmlns:xlink="http://www.w3.org/1999/xlink" xmlns:svgjs="http://svgjs.com/svgjs" fill="#f9aa05" x="268" y="334"><svg xmlns="http://www.w3.org/2000/svg" xmlns:xlink="http://www.w3.org/1999/xlink" width="31" height="31" viewBox="0.129 0.153 30.25 30.251"><path paint-order="stroke fill markers" fill-rule="evenodd" d="M15.237 30.404C6.883 30.394.119 23.614.129 15.261.139 6.908 6.918.144 15.27.153a15.125 15.125 0 0 1 10.678 4.43c5.907 5.907 5.907 15.484 0 21.39a15.126 15.126 0 0 1-10.712 4.431zm.208-13.553l2.979 10.322.876-.645-.497-12.091c.004-.403.088-.8.247-1.17l-.004.004a70.273 70.273 0 0 0 2.837-3.07c1.525-1.77 2.378-3.31 2.027-3.659a.324.324 0 0 0-.236-.078c-.593 0-1.939.825-3.428 2.102a71.14 71.14 0 0 0-3.074 2.831 3.362 3.362 0 0 1-1.119.247h-.05l-12.106-.499-.648.876 10.339 2.976a311.594 311.594 0 0 0-3.45 3.628c-.417.444-.695.738-.798.84a22.481 22.481 0 0 0-1.454 2.002l-3.434-.536-.449.447 2.673 2.031c-.167.314-.231.494-.19.535a.052.052 0 0 0 .038.011c.176-.038.345-.106.497-.202l2.034 2.669.448-.447-.537-3.43a22.297 22.297 0 0 0 2.004-1.452c.103-.103.394-.376.834-.788.806-.755 2.153-2.015 3.64-3.452v-.002z"/></svg></svg><svg width="49" height="49" xmlns="http://www.w3.org/2000/svg" xmlns:xlink="http://www.w3.org/1999/xlink" xmlns:svgjs="http://svgjs.com/svgjs" viewBox="0 0.04 49 48.92" fill="none" stroke-miterlimit="100" stroke="#f9aa05" stroke-width="3.427" x="253" y="329"><svg xmlns="http://www.w3.org/2000/svg" xmlns:xlink="http://www.w3.org/1999/xlink" width="49" height="49" viewBox="0.1 0.136 48.258 48.18"><path paint-order="stroke fill markers" d="M24.23 48.315C10.885 48.315.1 37.547.1 24.225.1 10.904 10.886.135 24.23.135c13.343 0 24.128 10.769 24.128 24.09 0 13.322-10.785 24.09-24.129 24.09z"/></svg></svg><svg width="39" height="16" xmlns="http://www.w3.org/2000/svg" xmlns:xlink="http://www.w3.org/1999/xlink" xmlns:svgjs="http://svgjs.com/svgjs" viewBox="0 0.282 39 15.437" fill="#f9aa05" x="258" y="364"><svg xmlns="http://www.w3.org/2000/svg" width="39" height="16" viewBox="0.389 0.404 37.68 14.914"><path paint-order="stroke fill markers" fill-rule="evenodd" d="M3.345 15.318h28.999l1.416-1.477s3.94-2.707 4.31-3.6l-28.815-.017s-1.245-.06-1.581-1.023a.926.926 0 0 0-.874-.603L.39 8.549l2.955 5.23s-1.109.738 0 1.539zm-.2-4.88a.508.508 0 1 1 1.016 0 .508.508 0 0 1-1.016 0zm5.444-7.122l.116 6.39c-.267-.107-.552-.297-.669-.631-.01-.03-.025-.056-.037-.084l.355-5.674a.98.98 0 0 1-.88-.972v-.11h.947L8.536.404l.033 1.83h.89v.11a.98.98 0 0 1-.87.972zm1.53 7.857a.435.435 0 0 0-.435.435v.031l5.4-.003v-.14-.323-.915-.156-.333-.157-.914-.323-.105-.218-2.047h-.64V4.003h.618v-.32H13.48v.32h.645v2.002h-.319v-1.35h-.521c-.161 0-.31.09-.385.232l-.592 1.118h-.263a.435.435 0 0 0-.403.271l-.724 1.776h-.798a.435.435 0 0 0-.436.436v.21h1.067v.914h-.631a.435.435 0 0 0-.436.436v.21h1.067v.915h-.631zm3.774-3.887h.465v.465h-.465v-.465zm0 1.64h.465v.465h-.465v-.465zm0 1.639h.465v.464h-.465v-.464zm-.954-3.279h.464v.465h-.464v-.465zm0 1.64h.464v.465h-.464v-.465zm0 1.639h.464v.464h-.464v-.464zm-1.02-3.279h.465v.465h-.465v-.465zm0 1.64h.465v.465h-.465v-.465zm0 1.639h.465v.464h-.465v-.464z"/></svg></svg></svg></svg>